%TF.GenerationSoftware,KiCad,Pcbnew,(5.1.9)-1*%
%TF.CreationDate,2021-01-02T17:40:18-05:00*%
%TF.ProjectId,dsPIC33-schematic,64735049-4333-4332-9d73-6368656d6174,rev?*%
%TF.SameCoordinates,Original*%
%TF.FileFunction,Soldermask,Bot*%
%TF.FilePolarity,Negative*%
%FSLAX46Y46*%
G04 Gerber Fmt 4.6, Leading zero omitted, Abs format (unit mm)*
G04 Created by KiCad (PCBNEW (5.1.9)-1) date 2021-01-02 17:40:18*
%MOMM*%
%LPD*%
G01*
G04 APERTURE LIST*
%ADD10R,1.159000X1.159000*%
%ADD11C,1.159000*%
%ADD12R,1.700000X1.700000*%
%ADD13C,1.600000*%
%ADD14R,1.600000X1.600000*%
%ADD15R,1.935000X1.935000*%
%ADD16C,1.935000*%
%ADD17O,1.700000X1.700000*%
%ADD18O,1.600000X1.600000*%
%ADD19C,1.150000*%
G04 APERTURE END LIST*
D10*
%TO.C,IC1*%
X139541000Y-82550000D03*
D11*
X139541000Y-85090000D03*
X139541000Y-87630000D03*
X139541000Y-90170000D03*
X139541000Y-92710000D03*
X139541000Y-95250000D03*
X139541000Y-97790000D03*
X139541000Y-100330000D03*
X139541000Y-102870000D03*
X139541000Y-105410000D03*
X139541000Y-107950000D03*
X139541000Y-110490000D03*
X139541000Y-113030000D03*
X139541000Y-115570000D03*
X147479000Y-115570000D03*
X147479000Y-113030000D03*
X147479000Y-110490000D03*
X147479000Y-107950000D03*
X147479000Y-105410000D03*
X147479000Y-102870000D03*
X147479000Y-100330000D03*
X147479000Y-97790000D03*
X147479000Y-95250000D03*
X147479000Y-92710000D03*
X147479000Y-90170000D03*
X147479000Y-87630000D03*
X147479000Y-85090000D03*
X147479000Y-82550000D03*
%TD*%
D12*
%TO.C,J6*%
X156210000Y-69850000D03*
%TD*%
%TO.C,J5*%
X129540000Y-69850000D03*
%TD*%
D13*
%TO.C,C1*%
X140970000Y-71120000D03*
X140970000Y-68620000D03*
%TD*%
D14*
%TO.C,C2*%
X147320000Y-71120000D03*
D13*
X145320000Y-71120000D03*
%TD*%
%TO.C,C3*%
X151130000Y-85050000D03*
X151130000Y-82550000D03*
%TD*%
%TO.C,C4*%
X135890000Y-115530000D03*
X135890000Y-113030000D03*
%TD*%
%TO.C,C5*%
X151130000Y-102870000D03*
X151130000Y-105370000D03*
%TD*%
D15*
%TO.C,IC2*%
X140970000Y-77470000D03*
D16*
X143510000Y-77470000D03*
X146050000Y-77470000D03*
%TD*%
D12*
%TO.C,J1*%
X130810000Y-129540000D03*
D17*
X133350000Y-129540000D03*
X135890000Y-129540000D03*
X138430000Y-129540000D03*
X140970000Y-129540000D03*
%TD*%
D12*
%TO.C,J2*%
X156210000Y-120650000D03*
D17*
X156210000Y-118110000D03*
X156210000Y-115570000D03*
X156210000Y-113030000D03*
X156210000Y-110490000D03*
X156210000Y-107950000D03*
X156210000Y-105410000D03*
X156210000Y-102870000D03*
X156210000Y-100330000D03*
X156210000Y-97790000D03*
X156210000Y-95250000D03*
X156210000Y-92710000D03*
X156210000Y-90170000D03*
X156210000Y-87630000D03*
X156210000Y-85090000D03*
X156210000Y-82550000D03*
%TD*%
D12*
%TO.C,J3*%
X129540000Y-85090000D03*
D17*
X129540000Y-87630000D03*
X129540000Y-90170000D03*
X129540000Y-92710000D03*
X129540000Y-95250000D03*
X129540000Y-97790000D03*
X129540000Y-100330000D03*
X129540000Y-102870000D03*
X129540000Y-105410000D03*
X129540000Y-107950000D03*
%TD*%
D12*
%TO.C,J4*%
X129540000Y-111760000D03*
D17*
X129540000Y-114300000D03*
X129540000Y-116840000D03*
%TD*%
D13*
%TO.C,R1*%
X134620000Y-72390000D03*
D18*
X134620000Y-82550000D03*
%TD*%
D19*
%TO.C,R2*%
X146090000Y-123190000D03*
X148590000Y-120690000D03*
X151090000Y-123190000D03*
%TD*%
M02*
