M48
; DRILL file {KiCad (5.1.9)-1} date 01/02/21 17:41:36
; FORMAT={-:-/ absolute / inch / decimal}
; #@! TF.CreationDate,2021-01-02T17:41:36-05:00
; #@! TF.GenerationSoftware,Kicad,Pcbnew,(5.1.9)-1
; #@! TF.FileFunction,Plated,1,2,PTH
FMAT,2
INCH
T1C0.0256
T2C0.0299
T3C0.0315
T4C0.0394
T5C0.0508
%
G90
G05
T1
X5.7516Y-4.85
X5.85Y-4.7516
X5.9484Y-4.85
T2
X5.4937Y-3.25
X5.4937Y-3.35
X5.4937Y-3.45
X5.4937Y-3.55
X5.4937Y-3.65
X5.4937Y-3.75
X5.4937Y-3.85
X5.4937Y-3.95
X5.4937Y-4.05
X5.4937Y-4.15
X5.4937Y-4.25
X5.4937Y-4.35
X5.4937Y-4.45
X5.4937Y-4.55
X5.8063Y-3.25
X5.8063Y-3.35
X5.8063Y-3.45
X5.8063Y-3.55
X5.8063Y-3.65
X5.8063Y-3.75
X5.8063Y-3.85
X5.8063Y-3.95
X5.8063Y-4.05
X5.8063Y-4.15
X5.8063Y-4.25
X5.8063Y-4.35
X5.8063Y-4.45
X5.8063Y-4.55
T3
X5.3Y-2.85
X5.3Y-3.25
X5.35Y-4.45
X5.35Y-4.5484
X5.55Y-2.7016
X5.55Y-2.8
X5.7213Y-2.8
X5.8Y-2.8
X5.95Y-3.25
X5.95Y-3.3484
X5.95Y-4.05
X5.95Y-4.1484
T4
X5.1Y-2.75
X5.1Y-3.35
X5.1Y-3.45
X5.1Y-3.55
X5.1Y-3.65
X5.1Y-3.75
X5.1Y-3.85
X5.1Y-3.95
X5.1Y-4.05
X5.1Y-4.15
X5.1Y-4.25
X5.1Y-4.4
X5.1Y-4.5
X5.1Y-4.6
X5.15Y-5.1
X5.25Y-5.1
X5.35Y-5.1
X5.45Y-5.1
X5.55Y-5.1
X6.15Y-2.75
X6.15Y-3.25
X6.15Y-3.35
X6.15Y-3.45
X6.15Y-3.55
X6.15Y-3.65
X6.15Y-3.75
X6.15Y-3.85
X6.15Y-3.95
X6.15Y-4.05
X6.15Y-4.15
X6.15Y-4.25
X6.15Y-4.35
X6.15Y-4.45
X6.15Y-4.55
X6.15Y-4.65
X6.15Y-4.75
T5
X5.55Y-3.05
X5.65Y-3.05
X5.75Y-3.05
T0
M30
