%TF.GenerationSoftware,KiCad,Pcbnew,(5.1.9)-1*%
%TF.CreationDate,2021-01-02T17:40:18-05:00*%
%TF.ProjectId,dsPIC33-schematic,64735049-4333-4332-9d73-6368656d6174,rev?*%
%TF.SameCoordinates,Original*%
%TF.FileFunction,Copper,L2,Bot*%
%TF.FilePolarity,Positive*%
%FSLAX46Y46*%
G04 Gerber Fmt 4.6, Leading zero omitted, Abs format (unit mm)*
G04 Created by KiCad (PCBNEW (5.1.9)-1) date 2021-01-02 17:40:18*
%MOMM*%
%LPD*%
G01*
G04 APERTURE LIST*
%TA.AperFunction,ComponentPad*%
%ADD10R,1.159000X1.159000*%
%TD*%
%TA.AperFunction,ComponentPad*%
%ADD11C,1.159000*%
%TD*%
%TA.AperFunction,ComponentPad*%
%ADD12R,1.700000X1.700000*%
%TD*%
%TA.AperFunction,ComponentPad*%
%ADD13C,1.600000*%
%TD*%
%TA.AperFunction,ComponentPad*%
%ADD14R,1.600000X1.600000*%
%TD*%
%TA.AperFunction,ComponentPad*%
%ADD15R,1.935000X1.935000*%
%TD*%
%TA.AperFunction,ComponentPad*%
%ADD16C,1.935000*%
%TD*%
%TA.AperFunction,ComponentPad*%
%ADD17O,1.700000X1.700000*%
%TD*%
%TA.AperFunction,ComponentPad*%
%ADD18O,1.600000X1.600000*%
%TD*%
%TA.AperFunction,ComponentPad*%
%ADD19C,1.150000*%
%TD*%
%TA.AperFunction,Conductor*%
%ADD20C,0.250000*%
%TD*%
G04 APERTURE END LIST*
D10*
%TO.P,IC1,1*%
%TO.N,Net-(IC1-Pad1)*%
X139541000Y-82550000D03*
D11*
%TO.P,IC1,2*%
%TO.N,PIN02*%
X139541000Y-85090000D03*
%TO.P,IC1,3*%
%TO.N,PIN03*%
X139541000Y-87630000D03*
%TO.P,IC1,4*%
%TO.N,PIN04*%
X139541000Y-90170000D03*
%TO.P,IC1,5*%
%TO.N,PIN05*%
X139541000Y-92710000D03*
%TO.P,IC1,6*%
%TO.N,PIN06*%
X139541000Y-95250000D03*
%TO.P,IC1,7*%
%TO.N,Net-(IC1-Pad7)*%
X139541000Y-97790000D03*
%TO.P,IC1,8*%
%TO.N,GND*%
X139541000Y-100330000D03*
%TO.P,IC1,9*%
%TO.N,PIN09*%
X139541000Y-102870000D03*
%TO.P,IC1,10*%
%TO.N,PIN10*%
X139541000Y-105410000D03*
%TO.P,IC1,11*%
%TO.N,PIN11*%
X139541000Y-107950000D03*
%TO.P,IC1,12*%
%TO.N,PIN12*%
X139541000Y-110490000D03*
%TO.P,IC1,13*%
%TO.N,+3V3*%
X139541000Y-113030000D03*
%TO.P,IC1,14*%
%TO.N,PGD*%
X139541000Y-115570000D03*
%TO.P,IC1,15*%
%TO.N,PGC*%
X147479000Y-115570000D03*
%TO.P,IC1,16*%
%TO.N,PIN16*%
X147479000Y-113030000D03*
%TO.P,IC1,17*%
%TO.N,DB4*%
X147479000Y-110490000D03*
%TO.P,IC1,18*%
%TO.N,DB5*%
X147479000Y-107950000D03*
%TO.P,IC1,19*%
%TO.N,GND*%
X147479000Y-105410000D03*
%TO.P,IC1,20*%
%TO.N,Net-(C5-Pad1)*%
X147479000Y-102870000D03*
%TO.P,IC1,21*%
%TO.N,DB6*%
X147479000Y-100330000D03*
%TO.P,IC1,22*%
%TO.N,DB7*%
X147479000Y-97790000D03*
%TO.P,IC1,23*%
%TO.N,RS*%
X147479000Y-95250000D03*
%TO.P,IC1,24*%
%TO.N,E*%
X147479000Y-92710000D03*
%TO.P,IC1,25*%
%TO.N,PIN25*%
X147479000Y-90170000D03*
%TO.P,IC1,26*%
%TO.N,PIN26*%
X147479000Y-87630000D03*
%TO.P,IC1,27*%
%TO.N,GND*%
X147479000Y-85090000D03*
%TO.P,IC1,28*%
%TO.N,+3V3*%
X147479000Y-82550000D03*
%TD*%
D12*
%TO.P,J6,1*%
%TO.N,GND*%
X156210000Y-69850000D03*
%TD*%
%TO.P,J5,1*%
%TO.N,+5V*%
X129540000Y-69850000D03*
%TD*%
D13*
%TO.P,C1,1*%
%TO.N,+5V*%
X140970000Y-71120000D03*
%TO.P,C1,2*%
%TO.N,GND*%
X140970000Y-68620000D03*
%TD*%
D14*
%TO.P,C2,1*%
%TO.N,+3V3*%
X147320000Y-71120000D03*
D13*
%TO.P,C2,2*%
%TO.N,GND*%
X145320000Y-71120000D03*
%TD*%
%TO.P,C3,2*%
%TO.N,GND*%
X151130000Y-85050000D03*
%TO.P,C3,1*%
%TO.N,+3V3*%
X151130000Y-82550000D03*
%TD*%
%TO.P,C4,2*%
%TO.N,GND*%
X135890000Y-115530000D03*
%TO.P,C4,1*%
%TO.N,+3V3*%
X135890000Y-113030000D03*
%TD*%
%TO.P,C5,1*%
%TO.N,Net-(C5-Pad1)*%
X151130000Y-102870000D03*
%TO.P,C5,2*%
%TO.N,GND*%
X151130000Y-105370000D03*
%TD*%
D15*
%TO.P,IC2,1*%
%TO.N,+5V*%
X140970000Y-77470000D03*
D16*
%TO.P,IC2,2*%
%TO.N,GND*%
X143510000Y-77470000D03*
%TO.P,IC2,3*%
%TO.N,+3V3*%
X146050000Y-77470000D03*
%TD*%
D12*
%TO.P,J1,1*%
%TO.N,Net-(IC1-Pad1)*%
X130810000Y-129540000D03*
D17*
%TO.P,J1,2*%
%TO.N,+3V3*%
X133350000Y-129540000D03*
%TO.P,J1,3*%
%TO.N,GND*%
X135890000Y-129540000D03*
%TO.P,J1,4*%
%TO.N,PGD*%
X138430000Y-129540000D03*
%TO.P,J1,5*%
%TO.N,PGC*%
X140970000Y-129540000D03*
%TD*%
D12*
%TO.P,J2,1*%
%TO.N,GND*%
X156210000Y-120650000D03*
D17*
%TO.P,J2,2*%
%TO.N,+5V*%
X156210000Y-118110000D03*
%TO.P,J2,3*%
%TO.N,Net-(J2-Pad3)*%
X156210000Y-115570000D03*
%TO.P,J2,4*%
%TO.N,RS*%
X156210000Y-113030000D03*
%TO.P,J2,5*%
%TO.N,GND*%
X156210000Y-110490000D03*
%TO.P,J2,6*%
%TO.N,E*%
X156210000Y-107950000D03*
%TO.P,J2,7*%
%TO.N,Net-(J2-Pad7)*%
X156210000Y-105410000D03*
%TO.P,J2,8*%
%TO.N,Net-(J2-Pad8)*%
X156210000Y-102870000D03*
%TO.P,J2,9*%
%TO.N,Net-(J2-Pad9)*%
X156210000Y-100330000D03*
%TO.P,J2,10*%
%TO.N,Net-(J2-Pad10)*%
X156210000Y-97790000D03*
%TO.P,J2,11*%
%TO.N,DB4*%
X156210000Y-95250000D03*
%TO.P,J2,12*%
%TO.N,DB5*%
X156210000Y-92710000D03*
%TO.P,J2,13*%
%TO.N,DB6*%
X156210000Y-90170000D03*
%TO.P,J2,14*%
%TO.N,DB7*%
X156210000Y-87630000D03*
%TO.P,J2,15*%
%TO.N,Net-(J2-Pad15)*%
X156210000Y-85090000D03*
%TO.P,J2,16*%
%TO.N,Net-(J2-Pad16)*%
X156210000Y-82550000D03*
%TD*%
D12*
%TO.P,J3,1*%
%TO.N,PIN02*%
X129540000Y-85090000D03*
D17*
%TO.P,J3,2*%
%TO.N,PIN03*%
X129540000Y-87630000D03*
%TO.P,J3,3*%
%TO.N,PIN04*%
X129540000Y-90170000D03*
%TO.P,J3,4*%
%TO.N,PIN05*%
X129540000Y-92710000D03*
%TO.P,J3,5*%
%TO.N,PIN06*%
X129540000Y-95250000D03*
%TO.P,J3,6*%
%TO.N,Net-(IC1-Pad7)*%
X129540000Y-97790000D03*
%TO.P,J3,7*%
%TO.N,PIN09*%
X129540000Y-100330000D03*
%TO.P,J3,8*%
%TO.N,PIN10*%
X129540000Y-102870000D03*
%TO.P,J3,9*%
%TO.N,PIN11*%
X129540000Y-105410000D03*
%TO.P,J3,10*%
%TO.N,PIN12*%
X129540000Y-107950000D03*
%TD*%
D12*
%TO.P,J4,1*%
%TO.N,PIN26*%
X129540000Y-111760000D03*
D17*
%TO.P,J4,2*%
%TO.N,PIN25*%
X129540000Y-114300000D03*
%TO.P,J4,3*%
%TO.N,PIN16*%
X129540000Y-116840000D03*
%TD*%
D13*
%TO.P,R1,1*%
%TO.N,+3V3*%
X134620000Y-72390000D03*
D18*
%TO.P,R1,2*%
%TO.N,Net-(IC1-Pad1)*%
X134620000Y-82550000D03*
%TD*%
D19*
%TO.P,R2,1*%
%TO.N,+5V*%
X146090000Y-123190000D03*
%TO.P,R2,2*%
%TO.N,Net-(J2-Pad3)*%
X148590000Y-120690000D03*
%TO.P,R2,3*%
%TO.N,GND*%
X151090000Y-123190000D03*
%TD*%
D20*
%TO.N,+5V*%
X129540000Y-69850000D02*
X135890000Y-69850000D01*
X137160000Y-71120000D02*
X140970000Y-71120000D01*
X135890000Y-69850000D02*
X137160000Y-71120000D01*
%TO.N,GND*%
X156210000Y-69850000D02*
X151130000Y-74930000D01*
X143510000Y-76200000D02*
X143510000Y-77470000D01*
X144780000Y-74930000D02*
X143510000Y-76200000D01*
X146050000Y-74930000D02*
X144780000Y-74930000D01*
X151130000Y-74930000D02*
X146050000Y-74930000D01*
X151130000Y-105370000D02*
X147519000Y-105370000D01*
X147519000Y-105370000D02*
X147479000Y-105410000D01*
%TO.N,+3V3*%
X147479000Y-82550000D02*
X144780000Y-82550000D01*
X140970000Y-111601000D02*
X139541000Y-113030000D01*
X140970000Y-86360000D02*
X140970000Y-111601000D01*
X144780000Y-82550000D02*
X140970000Y-86360000D01*
%TO.N,Net-(C5-Pad1)*%
X151130000Y-102870000D02*
X147479000Y-102870000D01*
%TO.N,Net-(IC1-Pad1)*%
X134620000Y-82550000D02*
X128270000Y-82550000D01*
X127000000Y-125730000D02*
X130810000Y-129540000D01*
X127000000Y-83820000D02*
X127000000Y-125730000D01*
X128270000Y-82550000D02*
X127000000Y-83820000D01*
%TO.N,PIN16*%
X129540000Y-116840000D02*
X129540000Y-116840000D01*
X138589000Y-121920000D02*
X147479000Y-113030000D01*
X134620000Y-121920000D02*
X138589000Y-121920000D01*
X129540000Y-116840000D02*
X134620000Y-121920000D01*
%TO.N,DB4*%
X156210000Y-95250000D02*
X153670000Y-97790000D01*
X151130000Y-110490000D02*
X147479000Y-110490000D01*
X153670000Y-107950000D02*
X151130000Y-110490000D01*
X153670000Y-97790000D02*
X153670000Y-107950000D01*
%TO.N,RS*%
X147479000Y-95250000D02*
X146050000Y-95250000D01*
X152400000Y-113030000D02*
X156210000Y-113030000D01*
X151130000Y-111760000D02*
X152400000Y-113030000D01*
X146050000Y-111760000D02*
X151130000Y-111760000D01*
X144780000Y-110490000D02*
X146050000Y-111760000D01*
X144780000Y-96520000D02*
X144780000Y-110490000D01*
X146050000Y-95250000D02*
X144780000Y-96520000D01*
%TO.N,E*%
X156210000Y-107950000D02*
X158750000Y-105410000D01*
X153670000Y-86519000D02*
X147479000Y-92710000D01*
X153670000Y-81280000D02*
X153670000Y-86519000D01*
X154940000Y-80010000D02*
X153670000Y-81280000D01*
X157480000Y-80010000D02*
X154940000Y-80010000D01*
X158750000Y-81280000D02*
X157480000Y-80010000D01*
X158750000Y-82550000D02*
X158750000Y-81280000D01*
X158750000Y-105410000D02*
X158750000Y-82550000D01*
%TO.N,PIN25*%
X147479000Y-90170000D02*
X147320000Y-90170000D01*
X134620000Y-119380000D02*
X129540000Y-114300000D01*
X138430000Y-119380000D02*
X134620000Y-119380000D01*
X143510000Y-114300000D02*
X138430000Y-119380000D01*
X143510000Y-93980000D02*
X143510000Y-114300000D01*
X147320000Y-90170000D02*
X143510000Y-93980000D01*
%TO.N,PIN26*%
X147479000Y-87630000D02*
X144780000Y-87630000D01*
X132080000Y-111760000D02*
X129540000Y-111760000D01*
X133350000Y-110490000D02*
X132080000Y-111760000D01*
X135890000Y-110490000D02*
X133350000Y-110490000D01*
X137160000Y-111760000D02*
X135890000Y-110490000D01*
X137160000Y-113030000D02*
X137160000Y-111760000D01*
X138430000Y-114300000D02*
X137160000Y-113030000D01*
X140970000Y-114300000D02*
X138430000Y-114300000D01*
X142240000Y-113030000D02*
X140970000Y-114300000D01*
X142240000Y-90170000D02*
X142240000Y-113030000D01*
X144780000Y-87630000D02*
X142240000Y-90170000D01*
%TD*%
M02*
